<svg width="66" height="43" viewBox="0 0 66 43" fill="none" xmlns="http://www.w3.org/2000/svg">
<rect width="66" height="43" rx="12" fill="#EDE2CE"/>
<rect width="46" height="23" transform="translate(10 10)" fill="#EDE2CE"/>
<path d="M10 10V33L33 21.5L10 10Z" fill="#323232"/>
<path d="M10 10V33L33 21.5L10 10Z" fill="black" fill-opacity="0.2"/>
<path d="M48.3333 17.6667H40.6667V25.3333H48.3333V17.6667ZM45.7778 22.7778H43.2222V20.2222H45.7778V22.7778ZM56 20.2222V17.6667H53.4444V15.1111C53.4444 13.7056 52.2944 12.5556 50.8889 12.5556H48.3333V10H45.7778V12.5556H43.2222V10H40.6667V12.5556H38.1111C36.7056 12.5556 35.5556 13.7056 35.5556 15.1111V17.6667H33V20.2222H35.5556V22.7778H33V25.3333H35.5556V27.8889C35.5556 29.2944 36.7056 30.4444 38.1111 30.4444H40.6667V33H43.2222V30.4444H45.7778V33H48.3333V30.4444H50.8889C52.2944 30.4444 53.4444 29.2944 53.4444 27.8889V25.3333H56V22.7778H53.4444V20.2222H56ZM50.8889 27.8889H38.1111V15.1111H50.8889V27.8889Z" fill="#323232"/>
<path d="M48.3333 17.6667H40.6667V25.3333H48.3333V17.6667ZM45.7778 22.7778H43.2222V20.2222H45.7778V22.7778ZM56 20.2222V17.6667H53.4444V15.1111C53.4444 13.7056 52.2944 12.5556 50.8889 12.5556H48.3333V10H45.7778V12.5556H43.2222V10H40.6667V12.5556H38.1111C36.7056 12.5556 35.5556 13.7056 35.5556 15.1111V17.6667H33V20.2222H35.5556V22.7778H33V25.3333H35.5556V27.8889C35.5556 29.2944 36.7056 30.4444 38.1111 30.4444H40.6667V33H43.2222V30.4444H45.7778V33H48.3333V30.4444H50.8889C52.2944 30.4444 53.4444 29.2944 53.4444 27.8889V25.3333H56V22.7778H53.4444V20.2222H56ZM50.8889 27.8889H38.1111V15.1111H50.8889V27.8889Z" fill="black" fill-opacity="0.2"/>
</svg>
